<?xml version="1.0" encoding="UTF-8" standalone="no"?>
<!DOCTYPE svg PUBLIC "-//W3C//DTD SVG 1.1//EN"
 "http://www.w3.org/Graphics/SVG/1.1/DTD/svg11.dtd">
<!-- Generated by graphviz version 3.0.0 (20220226.1711)
 -->
<!-- Title: dependencies Pages: 1 -->
<svg width="774pt" height="250pt"
 viewBox="0.00 0.00 774.00 249.80" xmlns="http://www.w3.org/2000/svg" xmlns:xlink="http://www.w3.org/1999/xlink">
<g id="graph0" class="graph" transform="scale(1 1) rotate(0) translate(4 245.8)">
<title>dependencies</title>
<polygon fill="white" stroke="transparent" points="-4,4 -4,-245.8 770,-245.8 770,4 -4,4"/>
<text text-anchor="middle" x="383" y="-8.2" font-family="sans-serif" font-size="14.00">dependencies</text>
<g id="clust1" class="cluster">
<title>cluster_ApartmentModule</title>
<polygon fill="none" stroke="black" stroke-dasharray="1,5" points="8,-32.8 8,-168.8 202,-168.8 202,-32.8 8,-32.8"/>
</g>
<g id="clust6" class="cluster">
<title>cluster_ApartmentModule_providers</title>
<polygon fill="none" stroke="black" points="16,-40.8 16,-92.8 194,-92.8 194,-40.8 16,-40.8"/>
</g>
<g id="clust7" class="cluster">
<title>cluster_AppModule</title>
<polygon fill="none" stroke="black" stroke-dasharray="1,5" points="220,-108.8 220,-233.8 590,-233.8 590,-108.8 220,-108.8"/>
</g>
<g id="clust9" class="cluster">
<title>cluster_AppModule_imports</title>
<polygon fill="none" stroke="black" points="366,-116.8 366,-168.8 582,-168.8 582,-116.8 366,-116.8"/>
</g>
<g id="clust12" class="cluster">
<title>cluster_AppModule_providers</title>
<polygon fill="none" stroke="black" points="228,-116.8 228,-168.8 358,-168.8 358,-116.8 228,-116.8"/>
</g>
<g id="clust19" class="cluster">
<title>cluster_UserModule</title>
<polygon fill="none" stroke="black" stroke-dasharray="1,5" points="210,-32.8 210,-100.8 758,-100.8 758,-32.8 210,-32.8"/>
</g>
<g id="clust24" class="cluster">
<title>cluster_UserModule_providers</title>
<polygon fill="none" stroke="black" points="218,-40.8 218,-92.8 750,-92.8 750,-40.8 218,-40.8"/>
</g>
<!-- ApartmentService -->
<g id="node1" class="node">
<title>ApartmentService</title>
<ellipse fill="#fdb462" stroke="black" cx="105" cy="-66.8" rx="81.08" ry="18"/>
<text text-anchor="middle" x="105" y="-62.6" font-family="Times,serif" font-size="14.00">ApartmentService</text>
</g>
<!-- ApartmentModule -->
<g id="node2" class="node">
<title>ApartmentModule</title>
<polygon fill="#8dd3c7" stroke="black" points="178.92,-160.8 175.92,-164.8 154.92,-164.8 151.92,-160.8 59.08,-160.8 59.08,-124.8 178.92,-124.8 178.92,-160.8"/>
<text text-anchor="middle" x="119" y="-138.6" font-family="Times,serif" font-size="14.00">ApartmentModule</text>
</g>
<!-- ApartmentService&#45;&gt;ApartmentModule -->
<g id="edge1" class="edge">
<title>ApartmentService&#45;&gt;ApartmentModule</title>
<path fill="none" stroke="black" d="M119,-84.81C119,-84.81 119,-114.65 119,-114.65"/>
<polygon fill="black" stroke="black" points="115.5,-114.65 119,-124.65 122.5,-114.65 115.5,-114.65"/>
</g>
<!-- AppModule -->
<g id="node5" class="node">
<title>AppModule</title>
<polygon fill="#8dd3c7" stroke="black" points="396.66,-225.8 393.66,-229.8 372.66,-229.8 369.66,-225.8 313.34,-225.8 313.34,-189.8 396.66,-189.8 396.66,-225.8"/>
<text text-anchor="middle" x="355" y="-203.6" font-family="Times,serif" font-size="14.00">AppModule</text>
</g>
<!-- ApartmentModule&#45;&gt;AppModule -->
<g id="edge2" class="edge">
<title>ApartmentModule&#45;&gt;AppModule</title>
<path fill="none" stroke="black" d="M119,-160.91C119,-180.14 119,-207.8 119,-207.8 119,-207.8 303.08,-207.8 303.08,-207.8"/>
<polygon fill="black" stroke="black" points="303.08,-211.3 313.08,-207.8 303.08,-204.3 303.08,-211.3"/>
</g>
<!-- HealthModule -->
<g id="node3" class="node">
<title>HealthModule</title>
<polygon fill="#8dd3c7" stroke="black" points="574.37,-160.8 571.37,-164.8 550.37,-164.8 547.37,-160.8 477.63,-160.8 477.63,-124.8 574.37,-124.8 574.37,-160.8"/>
<text text-anchor="middle" x="526" y="-138.6" font-family="Times,serif" font-size="14.00">HealthModule</text>
</g>
<!-- HealthModule&#45;&gt;AppModule -->
<g id="edge3" class="edge">
<title>HealthModule&#45;&gt;AppModule</title>
<path fill="none" stroke="black" d="M526,-160.91C526,-180.14 526,-207.8 526,-207.8 526,-207.8 406.83,-207.8 406.83,-207.8"/>
<polygon fill="black" stroke="black" points="406.83,-204.3 396.83,-207.8 406.83,-211.3 406.83,-204.3"/>
</g>
<!-- UserModule -->
<g id="node4" class="node">
<title>UserModule</title>
<polygon fill="#8dd3c7" stroke="black" points="459.99,-160.8 456.99,-164.8 435.99,-164.8 432.99,-160.8 374.01,-160.8 374.01,-124.8 459.99,-124.8 459.99,-160.8"/>
<text text-anchor="middle" x="417" y="-138.6" font-family="Times,serif" font-size="14.00">UserModule</text>
</g>
<!-- UserModule&#45;&gt;AppModule -->
<g id="edge4" class="edge">
<title>UserModule&#45;&gt;AppModule</title>
<path fill="none" stroke="black" d="M385.42,-160.91C385.42,-160.91 385.42,-179.79 385.42,-179.79"/>
<polygon fill="black" stroke="black" points="381.92,-179.79 385.42,-189.79 388.92,-179.79 381.92,-179.79"/>
</g>
<!-- AppService -->
<g id="node6" class="node">
<title>AppService</title>
<ellipse fill="#fdb462" stroke="black" cx="293" cy="-142.8" rx="56.75" ry="18"/>
<text text-anchor="middle" x="293" y="-138.6" font-family="Times,serif" font-size="14.00">AppService</text>
</g>
<!-- AppService&#45;&gt;AppModule -->
<g id="edge5" class="edge">
<title>AppService&#45;&gt;AppModule</title>
<path fill="none" stroke="black" d="M331.4,-156.27C331.4,-156.27 331.4,-179.66 331.4,-179.66"/>
<polygon fill="black" stroke="black" points="327.9,-179.66 331.4,-189.66 334.9,-179.66 327.9,-179.66"/>
</g>
<!-- AuthHelper -->
<g id="node7" class="node">
<title>AuthHelper</title>
<ellipse fill="#fdb462" stroke="black" cx="685" cy="-66.8" rx="56.75" ry="18"/>
<text text-anchor="middle" x="685" y="-62.6" font-family="Times,serif" font-size="14.00">AuthHelper</text>
</g>
<!-- AuthHelper&#45;&gt;UserModule -->
<g id="edge6" class="edge">
<title>AuthHelper&#45;&gt;UserModule</title>
<path fill="none" stroke="black" d="M685,-84.84C685,-97.36 685,-111.8 685,-111.8 685,-111.8 438.5,-111.8 438.5,-111.8 438.5,-111.8 438.5,-114.77 438.5,-114.77"/>
<polygon fill="black" stroke="black" points="435,-114.77 438.5,-124.77 442,-114.77 435,-114.77"/>
</g>
<!-- AuthService -->
<g id="node8" class="node">
<title>AuthService</title>
<ellipse fill="#fdb462" stroke="black" cx="551" cy="-66.8" rx="59.11" ry="18"/>
<text text-anchor="middle" x="551" y="-62.6" font-family="Times,serif" font-size="14.00">AuthService</text>
</g>
<!-- AuthService&#45;&gt;UserModule -->
<g id="edge7" class="edge">
<title>AuthService&#45;&gt;UserModule</title>
<path fill="none" stroke="black" d="M533.06,-84.3C533.06,-91.77 533.06,-98.8 533.06,-98.8 533.06,-98.8 417,-98.8 417,-98.8 417,-98.8 417,-114.65 417,-114.65"/>
<polygon fill="black" stroke="black" points="413.5,-114.65 417,-124.65 420.5,-114.65 413.5,-114.65"/>
</g>
<!-- JwtStrategy -->
<g id="node9" class="node">
<title>JwtStrategy</title>
<ellipse fill="#fdb462" stroke="black" cx="417" cy="-66.8" rx="56.77" ry="18"/>
<text text-anchor="middle" x="417" y="-62.6" font-family="Times,serif" font-size="14.00">JwtStrategy</text>
</g>
<!-- JwtStrategy&#45;&gt;UserModule -->
<g id="edge8" class="edge">
<title>JwtStrategy&#45;&gt;UserModule</title>
<path fill="none" stroke="black" d="M395.5,-83.67C395.5,-83.67 395.5,-114.65 395.5,-114.65"/>
<polygon fill="black" stroke="black" points="392,-114.65 395.5,-124.65 399,-114.65 392,-114.65"/>
</g>
<!-- UserService -->
<g id="node10" class="node">
<title>UserService</title>
<ellipse fill="#fdb462" stroke="black" cx="284" cy="-66.8" rx="58.46" ry="18"/>
<text text-anchor="middle" x="284" y="-62.6" font-family="Times,serif" font-size="14.00">UserService</text>
</g>
<!-- UserService&#45;&gt;UserModule -->
<g id="edge9" class="edge">
<title>UserService&#45;&gt;UserModule</title>
<path fill="none" stroke="black" d="M342.3,-66.8C349.84,-66.8 355,-66.8 355,-66.8 355,-66.8 355,-142.8 355,-142.8 355,-142.8 363.94,-142.8 363.94,-142.8"/>
<polygon fill="black" stroke="black" points="363.94,-146.3 373.94,-142.8 363.94,-139.3 363.94,-146.3"/>
</g>
</g>
</svg>
