<?xml version="1.0" encoding="UTF-8" standalone="no"?>
<!DOCTYPE svg PUBLIC "-//W3C//DTD SVG 1.1//EN"
 "http://www.w3.org/Graphics/SVG/1.1/DTD/svg11.dtd">
<!-- Generated by graphviz version 3.0.0 (20220226.1711)
 -->
<!-- Title: dependencies Pages: 1 -->
<svg width="572pt" height="174pt"
 viewBox="0.00 0.00 572.00 173.80" xmlns="http://www.w3.org/2000/svg" xmlns:xlink="http://www.w3.org/1999/xlink">
<g id="graph0" class="graph" transform="scale(1 1) rotate(0) translate(4 169.8)">
<title>dependencies</title>
<polygon fill="white" stroke="transparent" points="-4,4 -4,-169.8 568,-169.8 568,4 -4,4"/>
<text text-anchor="middle" x="282" y="-8.2" font-family="sans-serif" font-size="14.00">dependencies</text>
<g id="clust1" class="cluster">
<title>cluster_UserModule</title>
<polygon fill="none" stroke="black" stroke-dasharray="1,5" points="8,-32.8 8,-157.8 556,-157.8 556,-32.8 8,-32.8"/>
</g>
<g id="clust6" class="cluster">
<title>cluster_UserModule_providers</title>
<polygon fill="none" stroke="black" points="16,-40.8 16,-92.8 548,-92.8 548,-40.8 16,-40.8"/>
</g>
<!-- AuthHelper -->
<g id="node1" class="node">
<title>AuthHelper</title>
<ellipse fill="#fdb462" stroke="black" cx="483" cy="-66.8" rx="56.75" ry="18"/>
<text text-anchor="middle" x="483" y="-62.6" font-family="Times,serif" font-size="14.00">AuthHelper</text>
</g>
<!-- UserModule -->
<g id="node5" class="node">
<title>UserModule</title>
<polygon fill="#8dd3c7" stroke="black" points="324.99,-149.8 321.99,-153.8 300.99,-153.8 297.99,-149.8 239.01,-149.8 239.01,-113.8 324.99,-113.8 324.99,-149.8"/>
<text text-anchor="middle" x="282" y="-127.6" font-family="Times,serif" font-size="14.00">UserModule</text>
</g>
<!-- AuthHelper&#45;&gt;UserModule -->
<g id="edge1" class="edge">
<title>AuthHelper&#45;&gt;UserModule</title>
<path fill="none" stroke="black" d="M483,-84.91C483,-104.14 483,-131.8 483,-131.8 483,-131.8 335.12,-131.8 335.12,-131.8"/>
<polygon fill="black" stroke="black" points="335.12,-128.3 325.12,-131.8 335.12,-135.3 335.12,-128.3"/>
</g>
<!-- AuthService -->
<g id="node2" class="node">
<title>AuthService</title>
<ellipse fill="#fdb462" stroke="black" cx="349" cy="-66.8" rx="59.11" ry="18"/>
<text text-anchor="middle" x="349" y="-62.6" font-family="Times,serif" font-size="14.00">AuthService</text>
</g>
<!-- AuthService&#45;&gt;UserModule -->
<g id="edge2" class="edge">
<title>AuthService&#45;&gt;UserModule</title>
<path fill="none" stroke="black" d="M307.34,-79.64C307.34,-79.64 307.34,-103.32 307.34,-103.32"/>
<polygon fill="black" stroke="black" points="303.84,-103.32 307.34,-113.32 310.84,-103.32 303.84,-103.32"/>
</g>
<!-- JwtStrategy -->
<g id="node3" class="node">
<title>JwtStrategy</title>
<ellipse fill="#fdb462" stroke="black" cx="215" cy="-66.8" rx="56.77" ry="18"/>
<text text-anchor="middle" x="215" y="-62.6" font-family="Times,serif" font-size="14.00">JwtStrategy</text>
</g>
<!-- JwtStrategy&#45;&gt;UserModule -->
<g id="edge3" class="edge">
<title>JwtStrategy&#45;&gt;UserModule</title>
<path fill="none" stroke="black" d="M255.32,-79.64C255.32,-79.64 255.32,-103.32 255.32,-103.32"/>
<polygon fill="black" stroke="black" points="251.82,-103.32 255.32,-113.32 258.82,-103.32 251.82,-103.32"/>
</g>
<!-- UserService -->
<g id="node4" class="node">
<title>UserService</title>
<ellipse fill="#fdb462" stroke="black" cx="82" cy="-66.8" rx="58.46" ry="18"/>
<text text-anchor="middle" x="82" y="-62.6" font-family="Times,serif" font-size="14.00">UserService</text>
</g>
<!-- UserService&#45;&gt;UserModule -->
<g id="edge4" class="edge">
<title>UserService&#45;&gt;UserModule</title>
<path fill="none" stroke="black" d="M82,-84.91C82,-104.14 82,-131.8 82,-131.8 82,-131.8 228.6,-131.8 228.6,-131.8"/>
<polygon fill="black" stroke="black" points="228.6,-135.3 238.6,-131.8 228.6,-128.3 228.6,-135.3"/>
</g>
</g>
</svg>
